<svg width="37" height="58" viewBox="0 0 37 58" fill="none" xmlns="http://www.w3.org/2000/svg">
<path d="M36.9915 14.0881V18.2898C36.9915 18.6742 36.8679 18.9901 36.6207 19.2372C36.3736 19.4844 36.0578 19.608 35.6733 19.608H28.7528C28.1212 23.5625 26.3499 26.7756 23.4389 29.2472C20.5279 31.7188 16.7382 33.2292 12.0696 33.7784C16.6558 38.6667 22.9583 46.0265 30.9773 55.858C31.3617 56.2973 31.4167 56.7642 31.142 57.2585C30.9223 57.7528 30.5241 58 29.9474 58H21.9148C21.4754 58 21.1321 57.8352 20.8849 57.5057C12.4815 47.4271 5.64347 39.5866 0.370739 33.9844C0.12358 33.7372 0 33.4351 0 33.0781V27.8466C0 27.4896 0.130445 27.1806 0.391335 26.9197C0.652225 26.6589 0.961174 26.5284 1.31818 26.5284H5.93182C9.55682 26.5284 12.4747 25.938 14.6854 24.7571C16.8961 23.5762 18.3035 21.8598 18.9077 19.608H1.31818C0.933712 19.608 0.617898 19.4844 0.370739 19.2372C0.12358 18.9901 0 18.6742 0 18.2898V14.0881C0 13.7036 0.12358 13.3878 0.370739 13.1406C0.617898 12.8935 0.933712 12.7699 1.31818 12.7699H18.331C16.7656 9.66667 13.0857 8.11506 7.29119 8.11506H1.31818C0.961174 8.11506 0.652225 7.98461 0.391335 7.72372C0.130445 7.46283 0 7.15388 0 6.79688V1.31818C0 0.933712 0.12358 0.617898 0.370739 0.370739C0.617898 0.12358 0.933712 0 1.31818 0H35.5909C35.9754 0 36.2912 0.12358 36.5384 0.370739C36.7855 0.617898 36.9091 0.933712 36.9091 1.31818V5.51989C36.9091 5.90436 36.7855 6.22017 36.5384 6.46733C36.2912 6.71449 35.9754 6.83807 35.5909 6.83807H25.9929C27.2836 8.51326 28.1624 10.4905 28.6293 12.7699H35.6733C36.0578 12.7699 36.3736 12.8935 36.6207 13.1406C36.8679 13.3878 36.9915 13.7036 36.9915 14.0881Z" fill="#F3B218"/>
</svg>
